G04 EAGLE Gerber RS-274X export*
G75*
%MOMM*%
%FSLAX34Y34*%
%LPD*%
%INBottom Copper*%
%IPPOS*%
%AMOC8*
5,1,8,0,0,1.08239X$1,22.5*%
G01*
%ADD10C,1.016000*%
%ADD11R,1.288000X1.288000*%
%ADD12C,1.288000*%
%ADD13C,3.220000*%
%ADD14R,1.676400X1.676400*%
%ADD15C,1.676400*%
%ADD16C,4.016000*%
%ADD17C,1.400000*%
%ADD18C,1.960000*%
%ADD19R,1.524000X1.524000*%
%ADD20P,1.649562X8X292.500000*%
%ADD21C,4.445000*%
%ADD22C,0.406400*%
%ADD23C,0.609600*%
%ADD24C,0.654800*%
%ADD25C,0.254000*%


D10*
X88900Y990600D03*
X88900Y25400D03*
X1244600Y88900D03*
D11*
X134620Y815340D03*
D12*
X134620Y790340D03*
X134620Y770340D03*
X134620Y745340D03*
D13*
X107520Y846040D03*
X107520Y714640D03*
D14*
X406400Y190500D03*
D15*
X431800Y190500D03*
X457200Y190500D03*
X482600Y190500D03*
X508000Y190500D03*
X533400Y190500D03*
X558800Y190500D03*
X584200Y190500D03*
X609600Y190500D03*
X635000Y190500D03*
X660400Y190500D03*
X685800Y190500D03*
X711200Y190500D03*
X736600Y190500D03*
X762000Y190500D03*
X787400Y190500D03*
X812800Y190500D03*
X838200Y190500D03*
X863600Y190500D03*
X889000Y190500D03*
D16*
X361950Y190500D03*
X933450Y190500D03*
X361950Y952500D03*
X933450Y952500D03*
D17*
X177400Y190500D03*
X152400Y190500D03*
X127400Y190500D03*
X1142600Y190500D03*
X1117600Y190500D03*
X1092600Y190500D03*
D18*
X976360Y465220D03*
X976360Y515220D03*
X1101360Y515220D03*
X1101360Y465220D03*
X976360Y625240D03*
X976360Y675240D03*
X1101360Y675240D03*
X1101360Y625240D03*
D19*
X517900Y944200D03*
D20*
X543300Y944200D03*
X517900Y918800D03*
X543300Y918800D03*
X517900Y893400D03*
X543300Y893400D03*
X517900Y868000D03*
X543300Y868000D03*
X517900Y842600D03*
X543300Y842600D03*
X517900Y817200D03*
X543300Y817200D03*
X517900Y791800D03*
X543300Y791800D03*
X517900Y766400D03*
X543300Y766400D03*
X517900Y741000D03*
X543300Y741000D03*
X517900Y715600D03*
X543300Y715600D03*
X517900Y690200D03*
X543300Y690200D03*
X517900Y664800D03*
X543300Y664800D03*
X517900Y639400D03*
X543300Y639400D03*
X517900Y614000D03*
X543300Y614000D03*
X517900Y588600D03*
X543300Y588600D03*
X517900Y563200D03*
X543300Y563200D03*
X517900Y537800D03*
X543300Y537800D03*
X517900Y512400D03*
X543300Y512400D03*
D19*
X771900Y944200D03*
D20*
X797300Y944200D03*
X771900Y918800D03*
X797300Y918800D03*
X771900Y893400D03*
X797300Y893400D03*
X771900Y868000D03*
X797300Y868000D03*
X771900Y842600D03*
X797300Y842600D03*
X771900Y817200D03*
X797300Y817200D03*
X771900Y791800D03*
X797300Y791800D03*
X771900Y766400D03*
X797300Y766400D03*
X771900Y741000D03*
X797300Y741000D03*
X771900Y715600D03*
X797300Y715600D03*
X771900Y690200D03*
X797300Y690200D03*
X771900Y664800D03*
X797300Y664800D03*
X771900Y639400D03*
X797300Y639400D03*
X771900Y614000D03*
X797300Y614000D03*
X771900Y588600D03*
X797300Y588600D03*
X771900Y563200D03*
X797300Y563200D03*
X771900Y537800D03*
X797300Y537800D03*
X771900Y512400D03*
X797300Y512400D03*
D21*
X1231900Y977900D03*
X38100Y977900D03*
X38100Y38100D03*
X1231900Y38100D03*
D22*
X1142600Y190500D02*
X825500Y507600D01*
X766850Y601808D02*
X765408Y603250D01*
X711200Y603250D01*
X766850Y601808D02*
X807892Y601808D01*
X711200Y603250D02*
X571500Y742950D01*
X545250Y742950D01*
X543300Y741000D01*
X825500Y584200D02*
X825500Y507600D01*
X825500Y584200D02*
X807892Y601808D01*
X543300Y741000D02*
X532550Y730250D01*
X524392Y730250D01*
X522950Y728808D01*
X512908Y728808D01*
X501650Y717550D01*
X501650Y711200D01*
X511654Y701196D01*
X512850Y702392D01*
X522950Y702392D01*
X530092Y695250D01*
X530092Y507350D02*
X527050Y504308D01*
X527050Y495300D01*
X530092Y507350D02*
X530092Y695250D01*
X527050Y495300D02*
X241300Y209550D01*
X190500Y209550D01*
X177400Y196450D01*
X177400Y190500D01*
D23*
X71120Y932180D03*
X71120Y922020D03*
D24*
X165100Y742950D03*
X127000Y215900D03*
X1066800Y914400D03*
X1066800Y869950D03*
X1066800Y812800D03*
X952500Y673100D03*
X1085850Y209550D03*
X1121810Y675240D03*
X958850Y514350D03*
X1123950Y514350D03*
D23*
X1143000Y561340D03*
X1143000Y528320D03*
D25*
X792566Y500970D02*
X785870Y507666D01*
X807130Y500970D02*
X1117600Y190500D01*
X527136Y715600D02*
X517900Y715600D01*
X792566Y500970D02*
X807130Y500970D01*
X538566Y704170D02*
X527136Y715600D01*
X785870Y514595D02*
X785870Y507666D01*
X785870Y514595D02*
X774095Y526370D01*
X767166Y526370D01*
X589366Y704170D01*
X538566Y704170D01*
X506470Y544570D02*
X152400Y190500D01*
X517900Y680965D02*
X517900Y690200D01*
X517900Y680965D02*
X506470Y669535D01*
X506470Y544570D01*
M02*
