G04 EAGLE Gerber RS-274X export*
G75*
%MOMM*%
%FSLAX34Y34*%
%LPD*%
%IN*%
%IPPOS*%
%AMOC8*
5,1,8,0,0,1.08239X$1,22.5*%
G01*
%ADD10C,0.254000*%


D10*
X0Y0D02*
X1270000Y0D01*
X1270000Y1016000D01*
X0Y1016000D01*
X0Y0D01*
X189900Y120991D02*
X189977Y121970D01*
X190131Y122941D01*
X190360Y123896D01*
X190664Y124830D01*
X191039Y125737D01*
X191485Y126612D01*
X191999Y127450D01*
X192576Y128245D01*
X193214Y128992D01*
X193908Y129686D01*
X194655Y130324D01*
X195450Y130901D01*
X196288Y131415D01*
X197163Y131861D01*
X198070Y132236D01*
X199004Y132540D01*
X199960Y132769D01*
X200930Y132923D01*
X201909Y133000D01*
X202891Y133000D01*
X203870Y132923D01*
X204841Y132769D01*
X205796Y132540D01*
X206730Y132236D01*
X207637Y131861D01*
X208512Y131415D01*
X209350Y130901D01*
X210145Y130324D01*
X210892Y129686D01*
X211586Y128992D01*
X212224Y128245D01*
X212801Y127450D01*
X213315Y126612D01*
X213761Y125737D01*
X214136Y124830D01*
X214440Y123896D01*
X214669Y122941D01*
X214823Y121970D01*
X214900Y120991D01*
X214900Y120009D01*
X214823Y119030D01*
X214669Y118060D01*
X214440Y117104D01*
X214136Y116170D01*
X213761Y115263D01*
X213315Y114388D01*
X212801Y113550D01*
X212224Y112755D01*
X211586Y112008D01*
X210892Y111314D01*
X210145Y110676D01*
X209350Y110099D01*
X208512Y109585D01*
X207637Y109139D01*
X206730Y108764D01*
X205796Y108460D01*
X204841Y108231D01*
X203870Y108077D01*
X202891Y108000D01*
X201909Y108000D01*
X200930Y108077D01*
X199960Y108231D01*
X199004Y108460D01*
X198070Y108764D01*
X197163Y109139D01*
X196288Y109585D01*
X195450Y110099D01*
X194655Y110676D01*
X193908Y111314D01*
X193214Y112008D01*
X192576Y112755D01*
X191999Y113550D01*
X191485Y114388D01*
X191039Y115263D01*
X190664Y116170D01*
X190360Y117104D01*
X190131Y118060D01*
X189977Y119030D01*
X189900Y120009D01*
X189900Y120991D01*
X89900Y120991D02*
X89977Y121970D01*
X90131Y122941D01*
X90360Y123896D01*
X90664Y124830D01*
X91039Y125737D01*
X91485Y126612D01*
X91999Y127450D01*
X92576Y128245D01*
X93214Y128992D01*
X93908Y129686D01*
X94655Y130324D01*
X95450Y130901D01*
X96288Y131415D01*
X97163Y131861D01*
X98070Y132236D01*
X99004Y132540D01*
X99960Y132769D01*
X100930Y132923D01*
X101909Y133000D01*
X102891Y133000D01*
X103870Y132923D01*
X104841Y132769D01*
X105796Y132540D01*
X106730Y132236D01*
X107637Y131861D01*
X108512Y131415D01*
X109350Y130901D01*
X110145Y130324D01*
X110892Y129686D01*
X111586Y128992D01*
X112224Y128245D01*
X112801Y127450D01*
X113315Y126612D01*
X113761Y125737D01*
X114136Y124830D01*
X114440Y123896D01*
X114669Y122941D01*
X114823Y121970D01*
X114900Y120991D01*
X114900Y120009D01*
X114823Y119030D01*
X114669Y118060D01*
X114440Y117104D01*
X114136Y116170D01*
X113761Y115263D01*
X113315Y114388D01*
X112801Y113550D01*
X112224Y112755D01*
X111586Y112008D01*
X110892Y111314D01*
X110145Y110676D01*
X109350Y110099D01*
X108512Y109585D01*
X107637Y109139D01*
X106730Y108764D01*
X105796Y108460D01*
X104841Y108231D01*
X103870Y108077D01*
X102891Y108000D01*
X101909Y108000D01*
X100930Y108077D01*
X99960Y108231D01*
X99004Y108460D01*
X98070Y108764D01*
X97163Y109139D01*
X96288Y109585D01*
X95450Y110099D01*
X94655Y110676D01*
X93908Y111314D01*
X93214Y112008D01*
X92576Y112755D01*
X91999Y113550D01*
X91485Y114388D01*
X91039Y115263D01*
X90664Y116170D01*
X90360Y117104D01*
X90131Y118060D01*
X89977Y119030D01*
X89900Y120009D01*
X89900Y120991D01*
X1155100Y120991D02*
X1155177Y121970D01*
X1155331Y122941D01*
X1155560Y123896D01*
X1155864Y124830D01*
X1156239Y125737D01*
X1156685Y126612D01*
X1157199Y127450D01*
X1157776Y128245D01*
X1158414Y128992D01*
X1159108Y129686D01*
X1159855Y130324D01*
X1160650Y130901D01*
X1161488Y131415D01*
X1162363Y131861D01*
X1163270Y132236D01*
X1164204Y132540D01*
X1165160Y132769D01*
X1166130Y132923D01*
X1167109Y133000D01*
X1168091Y133000D01*
X1169070Y132923D01*
X1170041Y132769D01*
X1170996Y132540D01*
X1171930Y132236D01*
X1172837Y131861D01*
X1173712Y131415D01*
X1174550Y130901D01*
X1175345Y130324D01*
X1176092Y129686D01*
X1176786Y128992D01*
X1177424Y128245D01*
X1178001Y127450D01*
X1178515Y126612D01*
X1178961Y125737D01*
X1179336Y124830D01*
X1179640Y123896D01*
X1179869Y122941D01*
X1180023Y121970D01*
X1180100Y120991D01*
X1180100Y120009D01*
X1180023Y119030D01*
X1179869Y118060D01*
X1179640Y117104D01*
X1179336Y116170D01*
X1178961Y115263D01*
X1178515Y114388D01*
X1178001Y113550D01*
X1177424Y112755D01*
X1176786Y112008D01*
X1176092Y111314D01*
X1175345Y110676D01*
X1174550Y110099D01*
X1173712Y109585D01*
X1172837Y109139D01*
X1171930Y108764D01*
X1170996Y108460D01*
X1170041Y108231D01*
X1169070Y108077D01*
X1168091Y108000D01*
X1167109Y108000D01*
X1166130Y108077D01*
X1165160Y108231D01*
X1164204Y108460D01*
X1163270Y108764D01*
X1162363Y109139D01*
X1161488Y109585D01*
X1160650Y110099D01*
X1159855Y110676D01*
X1159108Y111314D01*
X1158414Y112008D01*
X1157776Y112755D01*
X1157199Y113550D01*
X1156685Y114388D01*
X1156239Y115263D01*
X1155864Y116170D01*
X1155560Y117104D01*
X1155331Y118060D01*
X1155177Y119030D01*
X1155100Y120009D01*
X1155100Y120991D01*
X1055100Y120991D02*
X1055177Y121970D01*
X1055331Y122941D01*
X1055560Y123896D01*
X1055864Y124830D01*
X1056239Y125737D01*
X1056685Y126612D01*
X1057199Y127450D01*
X1057776Y128245D01*
X1058414Y128992D01*
X1059108Y129686D01*
X1059855Y130324D01*
X1060650Y130901D01*
X1061488Y131415D01*
X1062363Y131861D01*
X1063270Y132236D01*
X1064204Y132540D01*
X1065160Y132769D01*
X1066130Y132923D01*
X1067109Y133000D01*
X1068091Y133000D01*
X1069070Y132923D01*
X1070041Y132769D01*
X1070996Y132540D01*
X1071930Y132236D01*
X1072837Y131861D01*
X1073712Y131415D01*
X1074550Y130901D01*
X1075345Y130324D01*
X1076092Y129686D01*
X1076786Y128992D01*
X1077424Y128245D01*
X1078001Y127450D01*
X1078515Y126612D01*
X1078961Y125737D01*
X1079336Y124830D01*
X1079640Y123896D01*
X1079869Y122941D01*
X1080023Y121970D01*
X1080100Y120991D01*
X1080100Y120009D01*
X1080023Y119030D01*
X1079869Y118060D01*
X1079640Y117104D01*
X1079336Y116170D01*
X1078961Y115263D01*
X1078515Y114388D01*
X1078001Y113550D01*
X1077424Y112755D01*
X1076786Y112008D01*
X1076092Y111314D01*
X1075345Y110676D01*
X1074550Y110099D01*
X1073712Y109585D01*
X1072837Y109139D01*
X1071930Y108764D01*
X1070996Y108460D01*
X1070041Y108231D01*
X1069070Y108077D01*
X1068091Y108000D01*
X1067109Y108000D01*
X1066130Y108077D01*
X1065160Y108231D01*
X1064204Y108460D01*
X1063270Y108764D01*
X1062363Y109139D01*
X1061488Y109585D01*
X1060650Y110099D01*
X1059855Y110676D01*
X1059108Y111314D01*
X1058414Y112008D01*
X1057776Y112755D01*
X1057199Y113550D01*
X1056685Y114388D01*
X1056239Y115263D01*
X1055864Y116170D01*
X1055560Y117104D01*
X1055331Y118060D01*
X1055177Y119030D01*
X1055100Y120009D01*
X1055100Y120991D01*
M02*
