G04 EAGLE Gerber RS-274X export*
G75*
%MOMM*%
%FSLAX34Y34*%
%LPD*%
%INSoldermask Top*%
%IPPOS*%
%AMOC8*
5,1,8,0,0,1.08239X$1,22.5*%
G01*
%ADD10R,0.952400X0.952400*%
%ADD11C,0.609600*%
%ADD12C,1.168400*%
%ADD13R,1.440400X1.440400*%
%ADD14C,1.440400*%
%ADD15C,3.372400*%
%ADD16R,1.828800X1.828800*%
%ADD17C,1.828800*%
%ADD18C,4.168400*%
%ADD19C,1.552400*%
%ADD20C,2.652400*%
%ADD21R,0.660400X0.762000*%
%ADD22C,2.112400*%
%ADD23R,1.676400X1.676400*%
%ADD24P,1.814519X8X292.500000*%
%ADD25R,0.762000X0.660400*%
%ADD26C,4.597400*%


D10*
X1033900Y812800D03*
X1048900Y812800D03*
D11*
X81280Y990600D02*
X81282Y990787D01*
X81289Y990974D01*
X81301Y991161D01*
X81317Y991347D01*
X81337Y991533D01*
X81362Y991718D01*
X81392Y991903D01*
X81426Y992087D01*
X81465Y992270D01*
X81508Y992452D01*
X81556Y992632D01*
X81608Y992812D01*
X81665Y992990D01*
X81725Y993167D01*
X81791Y993342D01*
X81860Y993516D01*
X81934Y993688D01*
X82012Y993858D01*
X82094Y994026D01*
X82180Y994192D01*
X82270Y994356D01*
X82364Y994517D01*
X82462Y994677D01*
X82564Y994833D01*
X82670Y994988D01*
X82780Y995139D01*
X82893Y995288D01*
X83010Y995434D01*
X83130Y995577D01*
X83254Y995717D01*
X83381Y995854D01*
X83512Y995988D01*
X83646Y996119D01*
X83783Y996246D01*
X83923Y996370D01*
X84066Y996490D01*
X84212Y996607D01*
X84361Y996720D01*
X84512Y996830D01*
X84667Y996936D01*
X84823Y997038D01*
X84983Y997136D01*
X85144Y997230D01*
X85308Y997320D01*
X85474Y997406D01*
X85642Y997488D01*
X85812Y997566D01*
X85984Y997640D01*
X86158Y997709D01*
X86333Y997775D01*
X86510Y997835D01*
X86688Y997892D01*
X86868Y997944D01*
X87048Y997992D01*
X87230Y998035D01*
X87413Y998074D01*
X87597Y998108D01*
X87782Y998138D01*
X87967Y998163D01*
X88153Y998183D01*
X88339Y998199D01*
X88526Y998211D01*
X88713Y998218D01*
X88900Y998220D01*
X89087Y998218D01*
X89274Y998211D01*
X89461Y998199D01*
X89647Y998183D01*
X89833Y998163D01*
X90018Y998138D01*
X90203Y998108D01*
X90387Y998074D01*
X90570Y998035D01*
X90752Y997992D01*
X90932Y997944D01*
X91112Y997892D01*
X91290Y997835D01*
X91467Y997775D01*
X91642Y997709D01*
X91816Y997640D01*
X91988Y997566D01*
X92158Y997488D01*
X92326Y997406D01*
X92492Y997320D01*
X92656Y997230D01*
X92817Y997136D01*
X92977Y997038D01*
X93133Y996936D01*
X93288Y996830D01*
X93439Y996720D01*
X93588Y996607D01*
X93734Y996490D01*
X93877Y996370D01*
X94017Y996246D01*
X94154Y996119D01*
X94288Y995988D01*
X94419Y995854D01*
X94546Y995717D01*
X94670Y995577D01*
X94790Y995434D01*
X94907Y995288D01*
X95020Y995139D01*
X95130Y994988D01*
X95236Y994833D01*
X95338Y994677D01*
X95436Y994517D01*
X95530Y994356D01*
X95620Y994192D01*
X95706Y994026D01*
X95788Y993858D01*
X95866Y993688D01*
X95940Y993516D01*
X96009Y993342D01*
X96075Y993167D01*
X96135Y992990D01*
X96192Y992812D01*
X96244Y992632D01*
X96292Y992452D01*
X96335Y992270D01*
X96374Y992087D01*
X96408Y991903D01*
X96438Y991718D01*
X96463Y991533D01*
X96483Y991347D01*
X96499Y991161D01*
X96511Y990974D01*
X96518Y990787D01*
X96520Y990600D01*
X96518Y990413D01*
X96511Y990226D01*
X96499Y990039D01*
X96483Y989853D01*
X96463Y989667D01*
X96438Y989482D01*
X96408Y989297D01*
X96374Y989113D01*
X96335Y988930D01*
X96292Y988748D01*
X96244Y988568D01*
X96192Y988388D01*
X96135Y988210D01*
X96075Y988033D01*
X96009Y987858D01*
X95940Y987684D01*
X95866Y987512D01*
X95788Y987342D01*
X95706Y987174D01*
X95620Y987008D01*
X95530Y986844D01*
X95436Y986683D01*
X95338Y986523D01*
X95236Y986367D01*
X95130Y986212D01*
X95020Y986061D01*
X94907Y985912D01*
X94790Y985766D01*
X94670Y985623D01*
X94546Y985483D01*
X94419Y985346D01*
X94288Y985212D01*
X94154Y985081D01*
X94017Y984954D01*
X93877Y984830D01*
X93734Y984710D01*
X93588Y984593D01*
X93439Y984480D01*
X93288Y984370D01*
X93133Y984264D01*
X92977Y984162D01*
X92817Y984064D01*
X92656Y983970D01*
X92492Y983880D01*
X92326Y983794D01*
X92158Y983712D01*
X91988Y983634D01*
X91816Y983560D01*
X91642Y983491D01*
X91467Y983425D01*
X91290Y983365D01*
X91112Y983308D01*
X90932Y983256D01*
X90752Y983208D01*
X90570Y983165D01*
X90387Y983126D01*
X90203Y983092D01*
X90018Y983062D01*
X89833Y983037D01*
X89647Y983017D01*
X89461Y983001D01*
X89274Y982989D01*
X89087Y982982D01*
X88900Y982980D01*
X88713Y982982D01*
X88526Y982989D01*
X88339Y983001D01*
X88153Y983017D01*
X87967Y983037D01*
X87782Y983062D01*
X87597Y983092D01*
X87413Y983126D01*
X87230Y983165D01*
X87048Y983208D01*
X86868Y983256D01*
X86688Y983308D01*
X86510Y983365D01*
X86333Y983425D01*
X86158Y983491D01*
X85984Y983560D01*
X85812Y983634D01*
X85642Y983712D01*
X85474Y983794D01*
X85308Y983880D01*
X85144Y983970D01*
X84983Y984064D01*
X84823Y984162D01*
X84667Y984264D01*
X84512Y984370D01*
X84361Y984480D01*
X84212Y984593D01*
X84066Y984710D01*
X83923Y984830D01*
X83783Y984954D01*
X83646Y985081D01*
X83512Y985212D01*
X83381Y985346D01*
X83254Y985483D01*
X83130Y985623D01*
X83010Y985766D01*
X82893Y985912D01*
X82780Y986061D01*
X82670Y986212D01*
X82564Y986367D01*
X82462Y986523D01*
X82364Y986683D01*
X82270Y986844D01*
X82180Y987008D01*
X82094Y987174D01*
X82012Y987342D01*
X81934Y987512D01*
X81860Y987684D01*
X81791Y987858D01*
X81725Y988033D01*
X81665Y988210D01*
X81608Y988388D01*
X81556Y988568D01*
X81508Y988748D01*
X81465Y988930D01*
X81426Y989113D01*
X81392Y989297D01*
X81362Y989482D01*
X81337Y989667D01*
X81317Y989853D01*
X81301Y990039D01*
X81289Y990226D01*
X81282Y990413D01*
X81280Y990600D01*
D12*
X88900Y990600D03*
D11*
X81280Y25400D02*
X81282Y25587D01*
X81289Y25774D01*
X81301Y25961D01*
X81317Y26147D01*
X81337Y26333D01*
X81362Y26518D01*
X81392Y26703D01*
X81426Y26887D01*
X81465Y27070D01*
X81508Y27252D01*
X81556Y27432D01*
X81608Y27612D01*
X81665Y27790D01*
X81725Y27967D01*
X81791Y28142D01*
X81860Y28316D01*
X81934Y28488D01*
X82012Y28658D01*
X82094Y28826D01*
X82180Y28992D01*
X82270Y29156D01*
X82364Y29317D01*
X82462Y29477D01*
X82564Y29633D01*
X82670Y29788D01*
X82780Y29939D01*
X82893Y30088D01*
X83010Y30234D01*
X83130Y30377D01*
X83254Y30517D01*
X83381Y30654D01*
X83512Y30788D01*
X83646Y30919D01*
X83783Y31046D01*
X83923Y31170D01*
X84066Y31290D01*
X84212Y31407D01*
X84361Y31520D01*
X84512Y31630D01*
X84667Y31736D01*
X84823Y31838D01*
X84983Y31936D01*
X85144Y32030D01*
X85308Y32120D01*
X85474Y32206D01*
X85642Y32288D01*
X85812Y32366D01*
X85984Y32440D01*
X86158Y32509D01*
X86333Y32575D01*
X86510Y32635D01*
X86688Y32692D01*
X86868Y32744D01*
X87048Y32792D01*
X87230Y32835D01*
X87413Y32874D01*
X87597Y32908D01*
X87782Y32938D01*
X87967Y32963D01*
X88153Y32983D01*
X88339Y32999D01*
X88526Y33011D01*
X88713Y33018D01*
X88900Y33020D01*
X89087Y33018D01*
X89274Y33011D01*
X89461Y32999D01*
X89647Y32983D01*
X89833Y32963D01*
X90018Y32938D01*
X90203Y32908D01*
X90387Y32874D01*
X90570Y32835D01*
X90752Y32792D01*
X90932Y32744D01*
X91112Y32692D01*
X91290Y32635D01*
X91467Y32575D01*
X91642Y32509D01*
X91816Y32440D01*
X91988Y32366D01*
X92158Y32288D01*
X92326Y32206D01*
X92492Y32120D01*
X92656Y32030D01*
X92817Y31936D01*
X92977Y31838D01*
X93133Y31736D01*
X93288Y31630D01*
X93439Y31520D01*
X93588Y31407D01*
X93734Y31290D01*
X93877Y31170D01*
X94017Y31046D01*
X94154Y30919D01*
X94288Y30788D01*
X94419Y30654D01*
X94546Y30517D01*
X94670Y30377D01*
X94790Y30234D01*
X94907Y30088D01*
X95020Y29939D01*
X95130Y29788D01*
X95236Y29633D01*
X95338Y29477D01*
X95436Y29317D01*
X95530Y29156D01*
X95620Y28992D01*
X95706Y28826D01*
X95788Y28658D01*
X95866Y28488D01*
X95940Y28316D01*
X96009Y28142D01*
X96075Y27967D01*
X96135Y27790D01*
X96192Y27612D01*
X96244Y27432D01*
X96292Y27252D01*
X96335Y27070D01*
X96374Y26887D01*
X96408Y26703D01*
X96438Y26518D01*
X96463Y26333D01*
X96483Y26147D01*
X96499Y25961D01*
X96511Y25774D01*
X96518Y25587D01*
X96520Y25400D01*
X96518Y25213D01*
X96511Y25026D01*
X96499Y24839D01*
X96483Y24653D01*
X96463Y24467D01*
X96438Y24282D01*
X96408Y24097D01*
X96374Y23913D01*
X96335Y23730D01*
X96292Y23548D01*
X96244Y23368D01*
X96192Y23188D01*
X96135Y23010D01*
X96075Y22833D01*
X96009Y22658D01*
X95940Y22484D01*
X95866Y22312D01*
X95788Y22142D01*
X95706Y21974D01*
X95620Y21808D01*
X95530Y21644D01*
X95436Y21483D01*
X95338Y21323D01*
X95236Y21167D01*
X95130Y21012D01*
X95020Y20861D01*
X94907Y20712D01*
X94790Y20566D01*
X94670Y20423D01*
X94546Y20283D01*
X94419Y20146D01*
X94288Y20012D01*
X94154Y19881D01*
X94017Y19754D01*
X93877Y19630D01*
X93734Y19510D01*
X93588Y19393D01*
X93439Y19280D01*
X93288Y19170D01*
X93133Y19064D01*
X92977Y18962D01*
X92817Y18864D01*
X92656Y18770D01*
X92492Y18680D01*
X92326Y18594D01*
X92158Y18512D01*
X91988Y18434D01*
X91816Y18360D01*
X91642Y18291D01*
X91467Y18225D01*
X91290Y18165D01*
X91112Y18108D01*
X90932Y18056D01*
X90752Y18008D01*
X90570Y17965D01*
X90387Y17926D01*
X90203Y17892D01*
X90018Y17862D01*
X89833Y17837D01*
X89647Y17817D01*
X89461Y17801D01*
X89274Y17789D01*
X89087Y17782D01*
X88900Y17780D01*
X88713Y17782D01*
X88526Y17789D01*
X88339Y17801D01*
X88153Y17817D01*
X87967Y17837D01*
X87782Y17862D01*
X87597Y17892D01*
X87413Y17926D01*
X87230Y17965D01*
X87048Y18008D01*
X86868Y18056D01*
X86688Y18108D01*
X86510Y18165D01*
X86333Y18225D01*
X86158Y18291D01*
X85984Y18360D01*
X85812Y18434D01*
X85642Y18512D01*
X85474Y18594D01*
X85308Y18680D01*
X85144Y18770D01*
X84983Y18864D01*
X84823Y18962D01*
X84667Y19064D01*
X84512Y19170D01*
X84361Y19280D01*
X84212Y19393D01*
X84066Y19510D01*
X83923Y19630D01*
X83783Y19754D01*
X83646Y19881D01*
X83512Y20012D01*
X83381Y20146D01*
X83254Y20283D01*
X83130Y20423D01*
X83010Y20566D01*
X82893Y20712D01*
X82780Y20861D01*
X82670Y21012D01*
X82564Y21167D01*
X82462Y21323D01*
X82364Y21483D01*
X82270Y21644D01*
X82180Y21808D01*
X82094Y21974D01*
X82012Y22142D01*
X81934Y22312D01*
X81860Y22484D01*
X81791Y22658D01*
X81725Y22833D01*
X81665Y23010D01*
X81608Y23188D01*
X81556Y23368D01*
X81508Y23548D01*
X81465Y23730D01*
X81426Y23913D01*
X81392Y24097D01*
X81362Y24282D01*
X81337Y24467D01*
X81317Y24653D01*
X81301Y24839D01*
X81289Y25026D01*
X81282Y25213D01*
X81280Y25400D01*
D12*
X88900Y25400D03*
D11*
X1236980Y88900D02*
X1236982Y89087D01*
X1236989Y89274D01*
X1237001Y89461D01*
X1237017Y89647D01*
X1237037Y89833D01*
X1237062Y90018D01*
X1237092Y90203D01*
X1237126Y90387D01*
X1237165Y90570D01*
X1237208Y90752D01*
X1237256Y90932D01*
X1237308Y91112D01*
X1237365Y91290D01*
X1237425Y91467D01*
X1237491Y91642D01*
X1237560Y91816D01*
X1237634Y91988D01*
X1237712Y92158D01*
X1237794Y92326D01*
X1237880Y92492D01*
X1237970Y92656D01*
X1238064Y92817D01*
X1238162Y92977D01*
X1238264Y93133D01*
X1238370Y93288D01*
X1238480Y93439D01*
X1238593Y93588D01*
X1238710Y93734D01*
X1238830Y93877D01*
X1238954Y94017D01*
X1239081Y94154D01*
X1239212Y94288D01*
X1239346Y94419D01*
X1239483Y94546D01*
X1239623Y94670D01*
X1239766Y94790D01*
X1239912Y94907D01*
X1240061Y95020D01*
X1240212Y95130D01*
X1240367Y95236D01*
X1240523Y95338D01*
X1240683Y95436D01*
X1240844Y95530D01*
X1241008Y95620D01*
X1241174Y95706D01*
X1241342Y95788D01*
X1241512Y95866D01*
X1241684Y95940D01*
X1241858Y96009D01*
X1242033Y96075D01*
X1242210Y96135D01*
X1242388Y96192D01*
X1242568Y96244D01*
X1242748Y96292D01*
X1242930Y96335D01*
X1243113Y96374D01*
X1243297Y96408D01*
X1243482Y96438D01*
X1243667Y96463D01*
X1243853Y96483D01*
X1244039Y96499D01*
X1244226Y96511D01*
X1244413Y96518D01*
X1244600Y96520D01*
X1244787Y96518D01*
X1244974Y96511D01*
X1245161Y96499D01*
X1245347Y96483D01*
X1245533Y96463D01*
X1245718Y96438D01*
X1245903Y96408D01*
X1246087Y96374D01*
X1246270Y96335D01*
X1246452Y96292D01*
X1246632Y96244D01*
X1246812Y96192D01*
X1246990Y96135D01*
X1247167Y96075D01*
X1247342Y96009D01*
X1247516Y95940D01*
X1247688Y95866D01*
X1247858Y95788D01*
X1248026Y95706D01*
X1248192Y95620D01*
X1248356Y95530D01*
X1248517Y95436D01*
X1248677Y95338D01*
X1248833Y95236D01*
X1248988Y95130D01*
X1249139Y95020D01*
X1249288Y94907D01*
X1249434Y94790D01*
X1249577Y94670D01*
X1249717Y94546D01*
X1249854Y94419D01*
X1249988Y94288D01*
X1250119Y94154D01*
X1250246Y94017D01*
X1250370Y93877D01*
X1250490Y93734D01*
X1250607Y93588D01*
X1250720Y93439D01*
X1250830Y93288D01*
X1250936Y93133D01*
X1251038Y92977D01*
X1251136Y92817D01*
X1251230Y92656D01*
X1251320Y92492D01*
X1251406Y92326D01*
X1251488Y92158D01*
X1251566Y91988D01*
X1251640Y91816D01*
X1251709Y91642D01*
X1251775Y91467D01*
X1251835Y91290D01*
X1251892Y91112D01*
X1251944Y90932D01*
X1251992Y90752D01*
X1252035Y90570D01*
X1252074Y90387D01*
X1252108Y90203D01*
X1252138Y90018D01*
X1252163Y89833D01*
X1252183Y89647D01*
X1252199Y89461D01*
X1252211Y89274D01*
X1252218Y89087D01*
X1252220Y88900D01*
X1252218Y88713D01*
X1252211Y88526D01*
X1252199Y88339D01*
X1252183Y88153D01*
X1252163Y87967D01*
X1252138Y87782D01*
X1252108Y87597D01*
X1252074Y87413D01*
X1252035Y87230D01*
X1251992Y87048D01*
X1251944Y86868D01*
X1251892Y86688D01*
X1251835Y86510D01*
X1251775Y86333D01*
X1251709Y86158D01*
X1251640Y85984D01*
X1251566Y85812D01*
X1251488Y85642D01*
X1251406Y85474D01*
X1251320Y85308D01*
X1251230Y85144D01*
X1251136Y84983D01*
X1251038Y84823D01*
X1250936Y84667D01*
X1250830Y84512D01*
X1250720Y84361D01*
X1250607Y84212D01*
X1250490Y84066D01*
X1250370Y83923D01*
X1250246Y83783D01*
X1250119Y83646D01*
X1249988Y83512D01*
X1249854Y83381D01*
X1249717Y83254D01*
X1249577Y83130D01*
X1249434Y83010D01*
X1249288Y82893D01*
X1249139Y82780D01*
X1248988Y82670D01*
X1248833Y82564D01*
X1248677Y82462D01*
X1248517Y82364D01*
X1248356Y82270D01*
X1248192Y82180D01*
X1248026Y82094D01*
X1247858Y82012D01*
X1247688Y81934D01*
X1247516Y81860D01*
X1247342Y81791D01*
X1247167Y81725D01*
X1246990Y81665D01*
X1246812Y81608D01*
X1246632Y81556D01*
X1246452Y81508D01*
X1246270Y81465D01*
X1246087Y81426D01*
X1245903Y81392D01*
X1245718Y81362D01*
X1245533Y81337D01*
X1245347Y81317D01*
X1245161Y81301D01*
X1244974Y81289D01*
X1244787Y81282D01*
X1244600Y81280D01*
X1244413Y81282D01*
X1244226Y81289D01*
X1244039Y81301D01*
X1243853Y81317D01*
X1243667Y81337D01*
X1243482Y81362D01*
X1243297Y81392D01*
X1243113Y81426D01*
X1242930Y81465D01*
X1242748Y81508D01*
X1242568Y81556D01*
X1242388Y81608D01*
X1242210Y81665D01*
X1242033Y81725D01*
X1241858Y81791D01*
X1241684Y81860D01*
X1241512Y81934D01*
X1241342Y82012D01*
X1241174Y82094D01*
X1241008Y82180D01*
X1240844Y82270D01*
X1240683Y82364D01*
X1240523Y82462D01*
X1240367Y82564D01*
X1240212Y82670D01*
X1240061Y82780D01*
X1239912Y82893D01*
X1239766Y83010D01*
X1239623Y83130D01*
X1239483Y83254D01*
X1239346Y83381D01*
X1239212Y83512D01*
X1239081Y83646D01*
X1238954Y83783D01*
X1238830Y83923D01*
X1238710Y84066D01*
X1238593Y84212D01*
X1238480Y84361D01*
X1238370Y84512D01*
X1238264Y84667D01*
X1238162Y84823D01*
X1238064Y84983D01*
X1237970Y85144D01*
X1237880Y85308D01*
X1237794Y85474D01*
X1237712Y85642D01*
X1237634Y85812D01*
X1237560Y85984D01*
X1237491Y86158D01*
X1237425Y86333D01*
X1237365Y86510D01*
X1237308Y86688D01*
X1237256Y86868D01*
X1237208Y87048D01*
X1237165Y87230D01*
X1237126Y87413D01*
X1237092Y87597D01*
X1237062Y87782D01*
X1237037Y87967D01*
X1237017Y88153D01*
X1237001Y88339D01*
X1236989Y88526D01*
X1236982Y88713D01*
X1236980Y88900D01*
D12*
X1244600Y88900D03*
D10*
X1033900Y868680D03*
X1048900Y868680D03*
D13*
X134620Y815340D03*
D14*
X134620Y790340D03*
X134620Y770340D03*
X134620Y745340D03*
D15*
X107520Y846040D03*
X107520Y714640D03*
D16*
X406400Y190500D03*
D17*
X431800Y190500D03*
X457200Y190500D03*
X482600Y190500D03*
X508000Y190500D03*
X533400Y190500D03*
X558800Y190500D03*
X584200Y190500D03*
X609600Y190500D03*
X635000Y190500D03*
X660400Y190500D03*
X685800Y190500D03*
X711200Y190500D03*
X736600Y190500D03*
X762000Y190500D03*
X787400Y190500D03*
X812800Y190500D03*
X838200Y190500D03*
X863600Y190500D03*
X889000Y190500D03*
D18*
X361950Y190500D03*
X933450Y190500D03*
X361950Y952500D03*
X933450Y952500D03*
D19*
X177400Y190500D03*
X152400Y190500D03*
X127400Y190500D03*
D20*
X202400Y120500D03*
X102400Y120500D03*
D21*
X1143000Y499872D03*
X1143000Y511048D03*
D19*
X1142600Y190500D03*
X1117600Y190500D03*
X1092600Y190500D03*
D20*
X1167600Y120500D03*
X1067600Y120500D03*
D21*
X1143000Y594868D03*
X1143000Y583692D03*
D10*
X1033900Y916940D03*
X1048900Y916940D03*
D22*
X976360Y465220D03*
X976360Y515220D03*
X1101360Y515220D03*
X1101360Y465220D03*
X976360Y625240D03*
X976360Y675240D03*
X1101360Y675240D03*
X1101360Y625240D03*
D23*
X517900Y944200D03*
D24*
X543300Y944200D03*
X517900Y918800D03*
X543300Y918800D03*
X517900Y893400D03*
X543300Y893400D03*
X517900Y868000D03*
X543300Y868000D03*
X517900Y842600D03*
X543300Y842600D03*
X517900Y817200D03*
X543300Y817200D03*
X517900Y791800D03*
X543300Y791800D03*
X517900Y766400D03*
X543300Y766400D03*
X517900Y741000D03*
X543300Y741000D03*
X517900Y715600D03*
X543300Y715600D03*
X517900Y690200D03*
X543300Y690200D03*
X517900Y664800D03*
X543300Y664800D03*
X517900Y639400D03*
X543300Y639400D03*
X517900Y614000D03*
X543300Y614000D03*
X517900Y588600D03*
X543300Y588600D03*
X517900Y563200D03*
X543300Y563200D03*
X517900Y537800D03*
X543300Y537800D03*
X517900Y512400D03*
X543300Y512400D03*
D23*
X771900Y944200D03*
D24*
X797300Y944200D03*
X771900Y918800D03*
X797300Y918800D03*
X771900Y893400D03*
X797300Y893400D03*
X771900Y868000D03*
X797300Y868000D03*
X771900Y842600D03*
X797300Y842600D03*
X771900Y817200D03*
X797300Y817200D03*
X771900Y791800D03*
X797300Y791800D03*
X771900Y766400D03*
X797300Y766400D03*
X771900Y741000D03*
X797300Y741000D03*
X771900Y715600D03*
X797300Y715600D03*
X771900Y690200D03*
X797300Y690200D03*
X771900Y664800D03*
X797300Y664800D03*
X771900Y639400D03*
X797300Y639400D03*
X771900Y614000D03*
X797300Y614000D03*
X771900Y588600D03*
X797300Y588600D03*
X771900Y563200D03*
X797300Y563200D03*
X771900Y537800D03*
X797300Y537800D03*
X771900Y512400D03*
X797300Y512400D03*
D25*
X47752Y927100D03*
X58928Y927100D03*
D26*
X1231900Y977900D03*
X38100Y977900D03*
X38100Y38100D03*
X1231900Y38100D03*
M02*
